<svg width="8" height="15" viewBox="0 0 8 15" fill="none" xmlns="http://www.w3.org/2000/svg">
<g opacity="0.5">
<path fill-rule="evenodd" clip-rule="evenodd" d="M0.5 6.7779L4.26541 4.33025L8.00003 6.7931L4.24899 0L0.5 6.7779ZM0.643737 7.48476L4.26961 5.09539L7.84828 7.46702L4.27166 9.85893L0.643737 7.48476ZM0.5 8.16891C1.82148 9.03546 3.20042 9.94256 4.26541 10.6444L8.00003 8.16891C6.64777 10.6495 5.52122 12.7145 4.26541 15L3.49522 13.6039C2.46068 11.7288 1.39383 9.79509 0.5 8.16891Z" fill="white"/>
<path fill-rule="evenodd" clip-rule="evenodd" d="M4.25 0L4.26407 4.33025L8.00002 6.7931L4.25 0ZM4.26754 5.09543L7.86985 7.46706L4.2693 9.85896L4.26754 5.09543ZM4.26412 10.6444L8.00007 8.16891C6.84131 10.6495 4.26412 15 4.26412 15V10.6444Z" fill="black" fill-opacity="0.1"/>
</g>
</svg>
