<svg width="44" height="44" viewBox="0 0 44 44" fill="none" xmlns="http://www.w3.org/2000/svg">
<path d="M10.6934 20.4072C10.6934 25.4023 14.7432 29.4521 19.7383 29.4521C21.4033 29.4521 22.9395 28.9902 24.25 28.1953L28.5684 32.5137C28.9873 32.9326 29.5459 33.1367 30.126 33.1367C31.3721 33.1367 32.2959 32.1914 32.2959 30.9668C32.2959 30.3867 32.0918 29.8496 31.6729 29.4199L27.3975 25.1338C28.2783 23.7803 28.7939 22.1582 28.7939 20.4072C28.7939 15.4014 24.7441 11.3516 19.7383 11.3516C14.7432 11.3516 10.6934 15.4014 10.6934 20.4072ZM13.7549 20.4072C13.7549 17.0986 16.4404 14.4238 19.7383 14.4238C23.0469 14.4238 25.7324 17.0986 25.7324 20.4072C25.7324 23.7158 23.0469 26.3906 19.7383 26.3906C16.4404 26.3906 13.7549 23.7158 13.7549 20.4072Z" fill="white"/>
</svg>
