<svg xmlns="http://www.w3.org/2000/svg" width="64" height="64"><path style="line-height:normal;text-indent:0;text-align:start;text-decoration-line:none;text-decoration-style:solid;text-decoration-color:#000;text-transform:none;block-progression:tb;isolation:auto;mix-blend-mode:normal" fill-rule="evenodd" d="M4.967 2C4.43 2 4 2.462 4 3.035V57H2.035C1.462 57 1 57.431 1 57.967v.066c0 .536.462.967 1.035.967H4v1.965c0 .573.431 1.035.967 1.035h.066C5.57 62 6 61.538 6 60.965V59h53.965c.573 0 1.035-.431 1.035-.967v-.066c0-.536-.462-.967-1.035-.967H6V3.035C6 2.462 5.569 2 5.033 2h-.066zm54.912 13.97a3 3 0 0 0-.299.03H52l3.664 3.664-7.252 9.23-4.668-3.333a3 3 0 0 0-4.121.61L31.332 36.95l-6.668-4.445a3 3 0 0 0-4.006.623L7 50.199V56h3.041l13.584-16.977 6.71 4.473a3 3 0 0 0 4.042-.666l8.236-10.705 4.643 3.316a3 3 0 0 0 4.103-.587l8.578-10.916L63 27v-7.66a3 3 0 0 0 0-.756V16h-2.543a3 3 0 0 0-.578-.03z" color="#000" font-family="sans-serif" font-weight="400" overflow="visible"/></svg>