<svg width="44" height="44" viewBox="0 0 44 44" fill="none" xmlns="http://www.w3.org/2000/svg">
<path d="M14.7061 33.1904H29.251C31.0557 33.1904 32.1191 32.127 32.1191 30.4082V20.7832L33.1182 21.6104C33.4404 21.8896 33.8271 22.083 34.2139 22.083C35.041 22.083 35.6211 21.5674 35.6211 20.7725C35.6211 20.3428 35.4277 19.9346 35.0625 19.6338L32.1191 17.1631V12.3828C32.1191 11.8779 31.7969 11.5557 31.3027 11.5557H29.3262C28.8213 11.5557 28.4883 11.8779 28.4883 12.3828V14.1016L23.8906 10.2451C22.752 9.28906 21.2695 9.28906 20.1309 10.2451L8.9375 19.6445C8.57227 19.9453 8.37891 20.3643 8.37891 20.7617C8.37891 21.5137 8.92676 22.083 9.78613 22.083C10.1836 22.083 10.5703 21.8896 10.8926 21.6104L11.8379 20.8262V30.4082C11.8379 32.127 12.9014 33.1904 14.7061 33.1904ZM25.0723 23.6299C25.0723 23.1143 24.7393 22.7812 24.2236 22.7812H19.7764C19.2607 22.7812 18.917 23.1143 18.917 23.6299V30.4189H15.6084C14.9639 30.4189 14.6094 30.0537 14.6094 29.4092V18.4951L21.4199 12.791C21.7959 12.458 22.2148 12.458 22.6123 12.791L29.3477 18.4521V29.4092C29.3477 30.0537 28.9932 30.4189 28.3594 30.4189H25.0723V23.6299Z" fill="white"/>
</svg>
