<svg width="44" height="44" viewBox="0 0 44 44" fill="none" xmlns="http://www.w3.org/2000/svg">
<path d="M12.7832 22.2441C12.7832 23.1465 13.5137 23.877 14.416 23.877H20.3779V29.8389C20.3779 30.7305 21.0977 31.4717 22 31.4717C22.9023 31.4717 23.6328 30.7305 23.6328 29.8389V23.877H29.5947C30.4863 23.877 31.2168 23.1465 31.2168 22.2441C31.2168 21.3525 30.4863 20.6221 29.5947 20.6221H23.6328V14.6602C23.6328 13.7686 22.9023 13.0273 22 13.0273C21.0977 13.0273 20.3779 13.7686 20.3779 14.6602V20.6221H14.416C13.5137 20.6221 12.7832 21.3525 12.7832 22.2441Z" fill="white"/>
</svg>
