<svg width="44" height="44" viewBox="0 0 44 44" fill="none" xmlns="http://www.w3.org/2000/svg">
<path d="M21.9884 33.2012C27.9825 33.2012 32.9454 28.2275 32.9454 22.2441C32.9454 16.25 27.9718 11.2871 21.9777 11.2871C15.9943 11.2871 11.0314 16.25 11.0314 22.2441C11.0314 28.2275 16.005 33.2012 21.9884 33.2012ZM21.9884 31.375C16.9181 31.375 12.8683 27.3145 12.8683 22.2441C12.8683 17.1738 16.9074 13.1133 21.9777 13.1133C27.048 13.1133 31.1085 17.1738 31.1193 22.2441C31.13 27.3145 27.0587 31.375 21.9884 31.375ZM16.9718 23.8018C17.8312 23.8018 18.5294 23.1035 18.5294 22.2334C18.5294 21.374 17.8204 20.6758 16.9718 20.6758C16.1017 20.6758 15.4034 21.374 15.4034 22.2334C15.4034 23.1035 16.1017 23.8018 16.9718 23.8018ZM21.9777 23.8018C22.837 23.8018 23.546 23.1035 23.546 22.2334C23.546 21.374 22.837 20.6758 21.9777 20.6758C21.1183 20.6758 20.4093 21.374 20.4093 22.2334C20.4093 23.1035 21.1183 23.8018 21.9777 23.8018ZM26.9943 23.8018C27.8536 23.8018 28.5519 23.1035 28.5519 22.2334C28.5519 21.374 27.8536 20.6758 26.9943 20.6758C26.1242 20.6758 25.4259 21.374 25.4259 22.2334C25.4259 23.1035 26.1242 23.8018 26.9943 23.8018Z" fill="white"/>
</svg>
