<svg width="44" height="44" viewBox="0 0 44 44" fill="none" xmlns="http://www.w3.org/2000/svg">
<path d="M22 22.5449C24.6641 22.5449 26.8125 20.2246 26.8125 17.3457C26.8125 14.5312 24.6533 12.2539 22 12.2539C19.3574 12.2539 17.1875 14.542 17.1982 17.3564C17.209 20.2246 19.3359 22.5449 22 22.5449ZM22 20.2676C20.6572 20.2676 19.54 19.0537 19.5293 17.3457C19.5186 15.7129 20.668 14.5205 22 14.5205C23.3535 14.5205 24.4707 15.7021 24.4707 17.3457C24.4707 19.043 23.3535 20.2676 22 20.2676ZM15.3936 32.6104H28.6064C30.5723 32.6104 31.5498 31.9443 31.5498 30.5479C31.5498 27.3896 27.6504 23.6621 22 23.6621C16.3389 23.6621 12.4502 27.3896 12.4502 30.5479C12.4502 31.9443 13.4277 32.6104 15.3936 32.6104ZM15.3076 30.3438C15.1035 30.3438 15.0391 30.2578 15.0391 30.0967C15.0391 28.6572 17.5742 25.9287 22 25.9287C26.4258 25.9287 28.9609 28.6572 28.9609 30.0967C28.9609 30.2578 28.8965 30.3438 28.6816 30.3438H15.3076Z" fill="white"/>
</svg>
