<svg width="44" height="44" viewBox="0 0 44 44" fill="none" xmlns="http://www.w3.org/2000/svg">
<path d="M20.915 33.7275H23.085C23.9121 33.7275 24.5459 33.2227 24.7393 32.4277L25.2012 30.4189L25.5449 30.3008L27.2959 31.375C27.9941 31.8154 28.7998 31.708 29.3906 31.1172L30.8945 29.624C31.4854 29.0332 31.5928 28.2168 31.1523 27.5293L30.0566 25.7891L30.1855 25.4668L32.1943 24.9941C32.9785 24.8008 33.4941 24.1562 33.4941 23.3398V21.2129C33.4941 20.3965 32.9893 19.752 32.1943 19.5586L30.207 19.0752L30.0674 18.7314L31.1631 16.9912C31.6035 16.3037 31.4961 15.498 30.9053 14.8965L29.4014 13.3926C28.8213 12.8125 28.0156 12.7051 27.3174 13.1348L25.5664 14.209L25.2012 14.0693L24.7393 12.0605C24.5459 11.2656 23.9121 10.7607 23.085 10.7607H20.915C20.0879 10.7607 19.4541 11.2656 19.2607 12.0605L18.7881 14.0693L18.4229 14.209L16.6826 13.1348C15.9844 12.7051 15.168 12.8125 14.5879 13.3926L13.0947 14.8965C12.5039 15.498 12.3857 16.3037 12.8369 16.9912L13.9219 18.7314L13.793 19.0752L11.8057 19.5586C11.0107 19.752 10.5059 20.3965 10.5059 21.2129V23.3398C10.5059 24.1562 11.0215 24.8008 11.8057 24.9941L13.8145 25.4668L13.9326 25.7891L12.8477 27.5293C12.3965 28.2168 12.5146 29.0332 13.1055 29.624L14.5986 31.1172C15.1895 31.708 16.0059 31.8154 16.7041 31.375L18.4443 30.3008L18.7881 30.4189L19.2607 32.4277C19.4541 33.2227 20.0879 33.7275 20.915 33.7275ZM21.0869 32.0518C20.9043 32.0518 20.8076 31.9766 20.7754 31.8047L20.1309 29.1406C19.4756 28.9795 18.8633 28.7217 18.4014 28.4316L16.0596 29.8711C15.9307 29.9678 15.791 29.9463 15.6621 29.8174L14.3945 28.5498C14.2764 28.4316 14.2656 28.3027 14.3516 28.1523L15.791 25.832C15.5439 25.3809 15.2646 24.7686 15.0928 24.1133L12.4287 23.4795C12.2568 23.4473 12.1816 23.3506 12.1816 23.168V21.374C12.1816 21.1807 12.2461 21.0947 12.4287 21.0625L15.082 20.418C15.2539 19.7197 15.5762 19.0859 15.7695 18.6885L14.3408 16.3682C14.2441 16.207 14.2549 16.0781 14.373 15.9492L15.6514 14.7031C15.7803 14.5742 15.8984 14.5527 16.0596 14.6494L18.3799 16.0566C18.8418 15.7988 19.4971 15.5303 20.1416 15.3477L20.7754 12.6836C20.8076 12.5117 20.9043 12.4365 21.0869 12.4365H22.9131C23.0957 12.4365 23.1924 12.5117 23.2139 12.6836L23.8691 15.3691C24.5352 15.541 25.1152 15.8096 25.5986 16.0674L27.9297 14.6494C28.1016 14.5527 28.209 14.5742 28.3486 14.7031L29.6162 15.9492C29.7451 16.0781 29.7451 16.207 29.6484 16.3682L28.2197 18.6885C28.4238 19.0859 28.7354 19.7197 28.9072 20.418L31.5713 21.0625C31.7432 21.0947 31.8184 21.1807 31.8184 21.374V23.168C31.8184 23.3506 31.7324 23.4473 31.5713 23.4795L28.8965 24.1133C28.7246 24.7686 28.4561 25.3809 28.1982 25.832L29.6377 28.1523C29.7236 28.3027 29.7236 28.4316 29.5947 28.5498L28.3379 29.8174C28.1982 29.9463 28.0693 29.9678 27.9297 29.8711L25.5879 28.4316C25.126 28.7217 24.5244 28.9795 23.8691 29.1406L23.2139 31.8047C23.1924 31.9766 23.0957 32.0518 22.9131 32.0518H21.0869ZM22 26.3477C24.2451 26.3477 26.0928 24.5 26.0928 22.2441C26.0928 20.0098 24.2451 18.1621 22 18.1621C19.7549 18.1621 17.8965 20.0098 17.8965 22.2441C17.8965 24.4893 19.7441 26.3477 22 26.3477ZM22 24.6826C20.668 24.6826 19.5723 23.5869 19.5723 22.2441C19.5723 20.9229 20.668 19.8271 22 19.8271C23.3105 19.8271 24.4062 20.9229 24.4062 22.2441C24.4062 23.5762 23.3105 24.6826 22 24.6826Z" fill="white"/>
</svg>
