<svg width="44" height="44" viewBox="0 0 44 44" fill="none" xmlns="http://www.w3.org/2000/svg">
<path d="M29.6914 32.1377H33.0107C34.1387 32.1377 34.708 31.5684 34.708 30.376V14.0586C34.708 12.8662 34.1387 12.2861 33.0107 12.2861H29.6914C28.5527 12.2861 27.9834 12.8662 27.9834 14.0586V30.376C27.9834 31.5684 28.5527 32.1377 29.6914 32.1377ZM20.3457 32.1377H23.665C24.793 32.1377 25.3623 31.5684 25.3623 30.376V17.1416C25.3623 15.9492 24.793 15.3799 23.665 15.3799H20.3457C19.207 15.3799 18.6377 15.9492 18.6377 17.1416V30.376C18.6377 31.5684 19.207 32.1377 20.3457 32.1377ZM11 32.1377H14.3193C15.4473 32.1377 16.0166 31.5684 16.0166 30.376V20.1494C16.0166 18.9678 15.4473 18.3877 14.3193 18.3877H11C9.86133 18.3877 9.29199 18.9678 9.29199 20.1494V30.376C9.29199 31.5684 9.86133 32.1377 11 32.1377Z" fill="white"/>
</svg>
